<svg width="1936" height="306" viewBox="0 0 1936 306" fill="none" xmlns="http://www.w3.org/2000/svg">
<path d="M0.2 300V292L36.2 289.6C36.4667 282.667 36.6 274.8 36.6 266C36.6 257.2 36.6 248.4 36.6 239.6C36.8667 230.8 37 222.933 37 216V13.6H0.600001V5.59998L42.6 0.79999L49 4L48.2 60.8V140C58.0667 127.733 68.8667 119.2 80.6 114.4C92.6 109.333 103.933 106.8 114.6 106.8C130.333 106.8 143.933 110.933 155.4 119.2C167.133 127.467 176.2 138.933 182.6 153.6C189 168 192.2 184.533 192.2 203.2C192.2 223.733 188.867 241.733 182.2 257.2C175.8 272.4 166.6 284.267 154.6 292.8C142.867 301.067 128.867 305.2 112.6 305.2C102.2 305.2 91.2667 302.8 79.8 298C68.6 293.2 58.0667 285.067 48.2 273.6L47 301.6L0.2 300ZM112.2 116.8C100.733 116.8 89.6667 119.467 79 124.8C68.6 129.867 58.3333 138.667 48.2 151.2V264C59.1333 274.667 69.5333 282.533 79.4 287.6C89.2667 292.667 100.2 295.2 112.2 295.2C124.2 295.2 135.267 292 145.4 285.6C155.533 279.2 163.667 269.333 169.8 256C176.2 242.4 179.4 224.8 179.4 203.2C179.4 174.667 173 153.2 160.2 138.8C147.667 124.133 131.667 116.8 112.2 116.8ZM320.631 305.2C306.498 305.2 292.765 301.733 279.431 294.8C266.098 287.867 255.165 277.2 246.631 262.8C238.098 248.133 233.831 229.467 233.831 206.8C233.831 183.867 238.098 165.067 246.631 150.4C255.165 135.733 266.098 124.8 279.431 117.6C292.765 110.4 306.498 106.8 320.631 106.8C335.031 106.8 348.765 110.4 361.831 117.6C375.165 124.8 386.098 135.733 394.631 150.4C403.165 165.067 407.431 183.867 407.431 206.8C407.431 229.467 403.165 248.133 394.631 262.8C386.098 277.2 375.165 287.867 361.831 294.8C348.765 301.733 335.031 305.2 320.631 305.2ZM320.631 297.2C342.765 297.2 360.631 289.2 374.231 273.2C387.831 257.2 394.631 235.067 394.631 206.8C394.631 178.533 387.831 156.133 374.231 139.6C360.631 123.067 342.765 114.8 320.631 114.8C298.498 114.8 280.631 123.067 267.031 139.6C253.431 156.133 246.631 178.533 246.631 206.8C246.631 235.067 253.431 257.2 267.031 273.2C280.631 289.2 298.498 297.2 320.631 297.2ZM535.866 305.2C521.732 305.2 507.999 301.733 494.666 294.8C481.332 287.867 470.399 277.2 461.866 262.8C453.332 248.133 449.066 229.467 449.066 206.8C449.066 183.867 453.332 165.067 461.866 150.4C470.399 135.733 481.332 124.8 494.666 117.6C507.999 110.4 521.732 106.8 535.866 106.8C550.266 106.8 563.999 110.4 577.066 117.6C590.399 124.8 601.332 135.733 609.866 150.4C618.399 165.067 622.666 183.867 622.666 206.8C622.666 229.467 618.399 248.133 609.866 262.8C601.332 277.2 590.399 287.867 577.066 294.8C563.999 301.733 550.266 305.2 535.866 305.2ZM535.866 297.2C557.999 297.2 575.866 289.2 589.466 273.2C603.066 257.2 609.866 235.067 609.866 206.8C609.866 178.533 603.066 156.133 589.466 139.6C575.866 123.067 557.999 114.8 535.866 114.8C513.732 114.8 495.866 123.067 482.266 139.6C468.666 156.133 461.866 178.533 461.866 206.8C461.866 235.067 468.666 257.2 482.266 273.2C495.866 289.2 513.732 297.2 535.866 297.2ZM662.7 300V292L698.7 290C698.967 283.067 699.1 275.2 699.1 266.4C699.1 257.333 699.1 248.4 699.1 239.6C699.367 230.8 699.5 222.933 699.5 216V13.6H663.1V5.59998L705.9 0.79999L711.5 4L710.7 60.8V213.2L801.1 122.4L762.7 120V112H850.7V120L813.9 122L756.3 179.2L825.1 290L858.7 292V300H817.9L747.9 187.6L710.7 224.4C710.7 234.533 710.7 245.733 710.7 258C710.967 270.267 711.233 280.933 711.5 290L743.9 292V300H662.7ZM876.688 300V285.6L906.288 280C906.554 269.867 906.688 258.933 906.688 247.2C906.954 235.467 907.088 225.067 907.088 216V196.8C907.088 185.867 906.954 176.8 906.688 169.6C906.688 162.4 906.421 154.8 905.888 146.8L874.288 143.2V129.2L930.288 104.8L936.288 108.8L939.488 141.2C948.821 130.533 959.754 121.867 972.288 115.2C984.821 108.267 997.221 104.8 1009.49 104.8C1022.02 104.8 1032.15 107.733 1039.89 113.6C1047.89 119.467 1053.62 129.067 1057.09 142.4C1067.22 129.867 1078.55 120.533 1091.09 114.4C1103.62 108 1116.42 104.8 1129.49 104.8C1145.75 104.8 1158.29 110.267 1167.09 121.2C1176.15 132.133 1180.69 150 1180.69 174.8V216C1180.69 225.067 1180.69 235.467 1180.69 247.2C1180.95 258.933 1181.22 269.867 1181.49 280L1209.49 285.6V300H1116.69V285.6L1146.29 280C1146.55 270.133 1146.69 259.333 1146.69 247.6C1146.95 235.6 1147.09 225.067 1147.09 216V181.2C1147.09 162.533 1144.42 150 1139.09 143.6C1133.75 136.933 1125.22 133.6 1113.49 133.6C1105.22 133.6 1096.69 135.467 1087.89 139.2C1079.35 142.933 1070.02 149.467 1059.89 158.8C1060.15 161.733 1060.29 164.933 1060.29 168.4C1060.55 171.6 1060.69 175.067 1060.69 178.8V216C1060.69 225.067 1060.69 235.467 1060.69 247.2C1060.95 258.933 1061.22 269.867 1061.49 280L1089.49 285.6V300H996.688V285.6L1026.29 280C1026.55 270.133 1026.69 259.333 1026.69 247.6C1026.95 235.6 1027.09 225.067 1027.09 216V182C1027.09 163.867 1024.55 151.333 1019.49 144.4C1014.42 137.2 1006.02 133.6 994.288 133.6C985.221 133.6 976.554 135.467 968.288 139.2C960.021 142.933 950.954 149.067 941.088 157.6V216C941.088 224.8 941.088 235.2 941.088 247.2C941.354 258.933 941.621 269.867 941.888 280L969.488 285.6V300H876.688ZM1387.63 304C1378.03 304 1370.03 301.2 1363.63 295.6C1357.23 290 1353.23 282.533 1351.63 273.2C1340.7 283.867 1331.1 291.867 1322.83 297.2C1314.57 302.533 1304.57 305.2 1292.83 305.2C1278.17 305.2 1265.5 301.067 1254.83 292.8C1244.43 284.267 1239.23 271.733 1239.23 255.2C1239.23 247.467 1240.97 240.267 1244.43 233.6C1248.17 226.933 1254.83 220.4 1264.43 214C1274.03 207.6 1287.77 201.2 1305.63 194.8C1311.77 192.667 1318.83 190.4 1326.83 188C1334.83 185.6 1342.83 183.467 1350.83 181.6V171.6C1350.83 152.133 1347.9 139.2 1342.03 132.8C1336.17 126.4 1326.57 123.2 1313.23 123.2C1310.3 123.2 1306.97 123.333 1303.23 123.6C1299.77 123.867 1295.9 124.533 1291.63 125.6L1284.03 151.6C1280.3 164.4 1273.37 170.8 1263.23 170.8C1252.03 170.8 1245.77 165.333 1244.43 154.4C1248.17 139.2 1256.97 127.2 1270.83 118.4C1284.97 109.333 1302.17 104.8 1322.43 104.8C1343.5 104.8 1359.1 110.133 1369.23 120.8C1379.37 131.2 1384.43 149.067 1384.43 174.4V259.6C1384.43 268.133 1385.77 274.267 1388.43 278C1391.1 281.467 1394.57 283.2 1398.83 283.2C1402.3 283.2 1405.23 282.4 1407.63 280.8C1410.03 279.2 1412.3 277.067 1414.43 274.4L1422.43 283.2C1417.63 290.933 1412.3 296.4 1406.43 299.6C1400.83 302.533 1394.57 304 1387.63 304ZM1274.83 249.2C1274.83 259.867 1277.9 267.467 1284.03 272C1290.17 276.533 1297.77 278.8 1306.83 278.8C1310.83 278.8 1314.57 278.267 1318.03 277.2C1321.77 276.133 1326.17 274.133 1331.23 271.2C1336.3 268 1342.83 263.467 1350.83 257.6V196.4C1343.9 198.267 1337.1 200.4 1330.43 202.8C1323.77 204.933 1318.3 206.8 1314.03 208.4C1302.57 212.933 1294.03 217.6 1288.43 222.4C1282.83 227.2 1279.1 231.867 1277.23 236.4C1275.63 240.933 1274.83 245.2 1274.83 249.2ZM1439.6 300V285.6L1468.4 280.4C1468.66 270.267 1468.8 259.333 1468.8 247.6C1469.06 235.6 1469.2 225.067 1469.2 216V196.8C1469.2 185.867 1469.06 176.8 1468.8 169.6C1468.8 162.4 1468.53 154.8 1468 146.8L1436.4 143.2V129.2L1492.4 104.8L1498.4 108.8L1502.8 156C1509.46 140 1518 127.467 1528.4 118.4C1539.06 109.333 1549.73 104.8 1560.4 104.8C1566.53 104.8 1572.26 106.133 1577.6 108.8C1582.93 111.467 1586.8 115.067 1589.2 119.6C1589.2 139.067 1581.33 148.8 1565.6 148.8C1561.06 148.8 1556.8 148 1552.8 146.4C1548.8 144.533 1544.93 142 1541.2 138.8L1536.4 134.4C1528.4 140.267 1521.73 147.467 1516.4 156C1511.06 164.533 1506.66 174.533 1503.2 186V216C1503.2 224.8 1503.2 235.067 1503.2 246.8C1503.46 258.533 1503.73 269.467 1504 279.6L1536.8 285.6V300H1439.6ZM1597.64 300V285.6L1629.64 280C1629.91 269.333 1630.04 258.667 1630.04 248C1630.31 237.067 1630.44 226.4 1630.44 216V40.4L1597.64 36.4V22.4L1660.04 4.39999L1665.64 7.6L1664.04 64.4V204L1732.44 132.8L1702.84 125.6V110H1796.04V125.6L1758.44 131.2L1714.44 176.4L1780.04 280.8L1806.44 285.6V300H1752.04L1690.44 200.8L1664.04 228C1664.04 236.533 1664.04 245.2 1664.04 254C1664.31 262.8 1664.57 271.467 1664.84 280L1696.84 285.6V300H1597.64ZM1888.39 305.2C1874.52 305.2 1863.46 301.467 1855.19 294C1846.92 286.533 1842.79 275.067 1842.79 259.6C1842.79 254.533 1842.79 249.6 1842.79 244.8C1843.06 239.733 1843.19 233.333 1843.19 225.6V131.2H1809.99V113.6L1845.59 109.2L1855.99 55.6H1879.99L1877.59 110H1931.59V131.2H1877.19V255.2C1877.19 265.333 1879.19 272.8 1883.19 277.6C1887.19 282.133 1892.52 284.4 1899.19 284.4C1903.72 284.4 1907.99 283.467 1911.99 281.6C1916.26 279.733 1920.92 277.067 1925.99 273.6L1935.59 284C1924.66 298.133 1908.92 305.2 1888.39 305.2Z" fill="#382110"/>
</svg>
