<svg width="64" height="74" viewBox="0 0 64 74" xmlns="http://www.w3.org/2000/svg" xmlns:xlink="http://www.w3.org/1999/xlink"><title>Tablet Portrait</title><defs><path id="a" d="M.966 65h45.06V.986H.965z"/></defs><g fill="none" fill-rule="evenodd"><g transform="translate(17 8.116)"><mask id="b" fill="#fff"><use xlink:href="#a"/></mask><path d="M45.808 8.69v-.366c-.217-1.466-1.449-2.198-2.68-1.685-1.449.659-2.826 1.318-4.275 1.904-2.463 1.026-4.853 2.125-7.389 3.151-1.594.659-3.187 1.465-4.78 2.125-2.392 1.025-4.782 2.051-7.245 3.077-1.232.513-2.463 1.172-3.695 1.612-1.81.659-3.622.732-5.506.439-1.81-.293-3.549-.659-5.216-1.758 1.232-.513 2.464-1.026 3.623-1.612 3.622-1.612 7.316-3.15 10.866-4.762 3.115-1.392 6.158-2.711 9.345-4.103.507-.22.942-.586 1.594-.293 1.014.513 2.028.952 3.188 1.392V2.755c0-1.172-1.304-2.051-2.39-1.685-1.16.44-2.247 1.026-3.333 1.466-2.39.952-4.709 2.051-7.027 3.077-1.594.659-3.188 1.392-4.782 2.125-2.318 1.025-4.636 1.978-7.027 3.003-1.666.733-3.332 1.393-4.926 2.125-1.738.806-3.187 2.052-3.187 4.543.072 13.701 0 27.475 0 41.176 0 .513.072.953.29 1.465.651 1.832 2.1 2.785 3.766 3.444 1.812.733 3.623 1.172 5.58 1.392 1.955.22 3.838.147 5.722-.44 2.752-.879 5.288-2.271 8.041-3.37 2.028-.879 4.057-1.832 6.013-2.711 2.752-1.172 5.505-2.344 8.331-3.59 1.956-.879 3.911-1.758 5.867-2.564.87-.367 1.45-1.172 1.45-2.125-.218-13.628-.218-27.475-.218-41.396" fill="#BAAD99" mask="url(#b)"/></g><path d="M25.21 15.633c1.521-.659 3.043-1.392 4.564-2.05 2.753-1.174 5.506-2.346 8.403-3.592 2.03-.879 4.13-1.83 6.158-2.71.435-.22.435-.367.362-.733-.217-.66-.652-1.026-1.23-1.319h-.87c-1.522.513-2.97 1.246-4.42 1.905-2.753 1.172-5.505 2.345-8.258 3.59-1.956.88-3.912 1.76-5.94 2.638a231.369 231.369 0 0 1-7.535 3.223c-4.346 1.832-8.04 1.1-8.838.88-1.086-.293-2.173-.586-3.187-1.173-.145-.073-.29-.146-.29-.293 0-.219.217-.146.29-.146 1.304-.586 2.535-1.172 3.84-1.759 1.593-.659 3.114-1.392 4.708-2.05 2.68-1.1 5.288-2.346 8.041-3.445 2.391-1.025 4.71-2.124 7.1-3.15.507-.22 1.014-.293 1.593.073.725.44 1.522.733 2.32 1.026.361.146.723.146.651-.513-.145-1.465.145-2.93-.145-4.396C32.31.393 31.078-.266 30.137.1c-1.595.513-3.116 1.246-4.71 1.905-1.956.806-3.839 1.76-5.795 2.565-2.39.952-4.78 2.051-7.1 3.077a129.585 129.585 0 0 1-4.708 2.051c-1.884.806-3.84 1.54-5.578 2.491C.942 12.922 0 13.875 0 15.56v42.202c0 1.392.652 2.491 1.666 3.297 2.535 1.978 5.578 2.564 8.766 2.857 1.014.073 2.028-.146 3.042-.146.942-.074 1.014-.147 1.014-1.099V25.084c0-2.93 1.45-5.055 3.912-6.374 2.174-1.172 4.492-2.05 6.81-3.077" fill="#BAAD99"/></g></svg>